<svg id="Warstwa_1" data-name="Warstwa 1" xmlns="http://www.w3.org/2000/svg" viewBox="0 0 569.76378 255.58124">
  <defs>
    <style>.cls-1{fill:#ffffff;}.cls-2{fill:#cc1417;}</style>
  </defs>
  <title>logos-projekty</title>
  <path class="cls-1"
        d="M22.94238,134.63213H13.39752v21.2865H1.41732V97.77048H23.02275q10.30455,0,15.89535,4.59255,5.58952,4.59447,5.59016,12.98036a17.88638,17.88638,0,0,1-2.57565,9.92375,17.56014,17.56014,0,0,1-7.80735,6.33007L46.705,155.35987v.55876H33.84588Zm-9.54486-9.70433H23.0623q4.51218,0,6.98962-2.29628a8.20761,8.20761,0,0,0,2.47615-6.33008,8.78973,8.78973,0,0,0-2.3371-6.4704q-2.33646-2.3556-7.16822-2.35624H13.39752Z"/>
  <path class="cls-1"
        d="M86.44214,143.93716H65.435l-3.993,11.98147H48.70152L70.34778,97.77048h11.1025l21.7649,58.14815H90.47593Zm-17.77192-9.70433H83.20694l-7.30855-21.76489Z"/>
  <path class="cls-1"
        d="M126.85792,132.59609l-6.23057,6.709v16.61358h-11.9802V97.77048h11.9802V124.1292l5.27251-7.22817L140.716,97.77048h14.737L134.80559,123.61l21.24568,32.30864H141.79393Z"/>
  <path class="cls-1" d="M173.304,155.91863h-11.9802V97.77048H173.304Z"/>
  <path class="cls-1"
        d="M219.39284,130.71825H196.38923v15.57514h26.99658v9.62524h-38.978V97.77048h38.899v9.70432H196.38923v13.858h23.00361Z"/>
  <path class="cls-1" d="M274.98319,107.4748H257.17172v48.44383H245.19025V107.4748H227.61862V97.77048h47.36457Z"/>
  <path class="cls-1"
        d="M299.385,139.86381H292.1568v16.05482H280.57463V109.3922h19.40993q8.86554,0,13.81849,3.65491a12.0786,12.0786,0,0,1,4.95231,10.323,14.89377,14.89377,0,0,1-2.05772,8.16709,14.61165,14.61165,0,0,1-6.68855,5.2521L320.55156,155.439v.47967H308.09042Zm-7.22817-9.305h7.82776q7.22754,0,7.22817-5.97032,0-5.89-7.5471-5.89123H292.1568Z"/>
  <path class="cls-1"
        d="M355.057,147.05244H337.04522l-3.27475,8.86619H322.1883l18.411-46.52643H351.462l18.57051,46.52643H358.37127Zm-14.89774-8.46689h11.70209l-5.86955-15.73461Z"/>
  <path class="cls-1"
        d="M413.5636,139.98373a16.1263,16.1263,0,0,1-6.00987,12.10139q-5.53212,4.472-14.55713,4.47264-9.70369,0-15.27536-5.93078-5.57231-5.93013-5.73049-16.3546v-2.63562q0-10.4232,5.6514-16.65312,5.64884-6.23058,15.27535-6.23057,9.02437,0,14.45635,4.51346,5.43071,4.51218,6.23057,12.45986H402.06179q-.398-7.66765-9.14429-7.66829-9.10665,0-9.3854,12.72266v2.952q0,7.1395,2.21591,10.32943t7.24859,3.19055q4.35336,0,6.5699-1.74773,2.21592-1.74708,2.4162-5.52127Z"/>
  <path class="cls-1"
        d="M436.16791,138.546l-5.07095,4.99186v12.38077H419.51351V109.3922H431.097v19.40993l3.91388-5.27251L446.232,109.3922h14.45635l-16.69267,20.8872,17.13279,25.63923h-13.659Z"/>
  <path class="cls-1" d="M498.97807,97.77048V157.534l60.04947-19.95779c12.42522-4.12959,12.42522-15.71836,0-19.848Z"/>
  <path class="cls-2" d="M173.304,82.3132,20.92734,2.12851C12.59617-2.25558,2.42475,3.54267,2.42475,12.676V82.3132Z"/>
  <path class="cls-2"
        d="M173.304,173.268,20.92734,253.45274c-8.33117,4.38408-18.50259-1.41417-18.50259-10.54746V173.268Z"/>
  <rect class="cls-2" x="471.94176" y="97.77048" width="12.29125" height="59.76354"/>
</svg>
